<svg id="Layer_1" enable-background="new 0 0 512 512" height="512" viewBox="0 0 512 512" width="512" xmlns="http://www.w3.org/2000/svg"><g><g clip-rule="evenodd" fill-rule="evenodd"><path d="m171.315 7.997h167.953l148.309 148.309v284.797c0 34.583-28.318 62.901-62.901 62.901h-253.361c-34.583 0-62.901-28.318-62.901-62.901v-370.205c0-34.583 28.318-62.901 62.901-62.901z" fill="#0263d1"/><path d="m339.268 7.997 148.309 148.309h-132.294c-8.816 0-16.016-7.2-16.016-16.016v-132.293z" fill="#014fa7"/><path d="m38.228 219.206h341.603c7.597 0 13.805 6.208 13.805 13.805v125.32c0 7.597-6.208 13.805-13.805 13.805h-341.603c-7.597 0-13.805-6.208-13.805-13.805v-125.32c.001-7.597 6.208-13.805 13.805-13.805z" fill="#014fa7"/></g><path d="m141.987 250.983c-.833-3.641-4.071-6.223-7.806-6.223h-18.51c-3.735 0-6.974 2.582-7.806 6.223l-19.616 85.777c-.986 4.312 1.709 8.605 6.021 9.592 4.309.985 8.606-1.71 9.591-6.021l5.727-25.043h30.675l5.727 25.043c.848 3.711 4.147 6.225 7.799 6.225.591 0 1.192-.066 1.792-.203 4.312-.986 7.007-5.28 6.021-9.592zm-28.736 48.288 8.803-38.495h5.744l8.803 38.495zm118.511-48.285c-.832-3.643-4.071-6.226-7.807-6.226h-18.539c-3.736 0-6.975 2.583-7.807 6.226l-19.587 85.776c-.984 4.312 1.713 8.604 6.024 9.589 4.313.989 8.605-1.713 9.59-6.024l5.718-25.04h30.663l5.718 25.04c.848 3.712 4.147 6.228 7.8 6.228.59 0 1.19-.065 1.79-.203 4.312-.984 7.009-5.277 6.024-9.589zm-28.751 48.285 8.79-38.495h5.769l8.79 38.495zm127.002 13.507c0 18.623-15.164 33.774-33.803 33.774-18.624 0-33.774-15.151-33.774-33.774v-34.243c0-18.623 15.151-33.774 33.774-33.774 18.639 0 33.803 15.151 33.803 33.774 0 4.423-3.585 8.008-8.008 8.008s-8.008-3.585-8.008-8.008c0-9.792-7.979-17.759-17.788-17.759-9.792 0-17.759 7.967-17.759 17.759v34.243c0 9.792 7.967 17.759 17.759 17.759 9.808 0 17.788-7.967 17.788-17.759 0-4.423 3.585-8.008 8.008-8.008s8.008 3.585 8.008 8.008z" fill="#fff"/></g></svg>