<svg viewBox="0 0 96 96" xmlns="http://www.w3.org/2000/svg"><g id="Layer_1"/><g id="Layer_2"/><g id="Layer_3"/><g id="Layer_4"><g><path d="m90.145 31.952v51.385c0 4.785-3.879 8.664-8.664 8.664h-53.427c-4.785 0-8.664-3.879-8.664-8.664v-70.673c0-4.785 3.879-8.664 8.664-8.664h35.784z" fill="#66a4ff"/><path d="m90.145 31.952h-20.531c-3.19 0-5.776-2.586-5.776-5.776v-22.176z" fill="#3373ff"/><path d="m74.488 78.946h-66.974c-.916 0-1.659-.743-1.659-1.659v-30.354c0-.916.743-1.659 1.659-1.659h66.974c.916 0 1.659.743 1.659 1.659v30.354c0 .916-.743 1.659-1.659 1.659z" fill="#3373ff"/><g fill="#fff"><path d="m24.145 70.887c-.276 0-.536-.068-.778-.214-.243-.147-.361-.355-.361-.632v-16.036c0-.276.118-.485.361-.626.243-.147.502-.226.778-.226h8.635c.31 0 .525.124.654.367.13.243.197.491.197.75 0 .31-.073.581-.22.812-.147.237-.355.355-.632.355h-7.203v5.556h3.734c.276 0 .485.102.632.316.147.209.22.451.22.722 0 .231-.068.451-.197.671-.13.22-.35.327-.654.327h-3.734v5.578h7.203c.276 0 .485.113.632.338.147.226.22.508.22.824 0 .259-.068.513-.197.756-.13.243-.344.361-.654.361h-8.636z"/><path d="m36.103 70.966c-.226 0-.468-.056-.728-.169-.259-.113-.474-.271-.654-.463-.175-.197-.265-.406-.265-.632 0-.164.056-.333.169-.508l4.174-7.186-4.055-7.129c-.13-.226-.192-.44-.192-.632 0-.226.079-.429.243-.609.164-.175.367-.316.62-.406.248-.102.496-.147.739-.147s.44.068.592.203.282.316.378.519l3.373 6.216 3.373-6.216c.113-.203.248-.384.412-.519.158-.135.344-.203.558-.203.243 0 .485.045.739.147.248.09.457.231.632.406.169.18.254.384.254.609 0 .192-.068.406-.197.632l-4.072 7.129 4.196 7.186c.096.175.147.344.147.508 0 .226-.09.434-.271.632-.175.192-.389.35-.643.463-.248.113-.496.169-.739.169-.175 0-.338-.068-.485-.186s-.259-.254-.338-.4l-3.565-6.453-3.57 6.453c-.079.147-.186.282-.327.4-.137.118-.301.186-.498.186z"/><path d="m49.662 70.887c-.276 0-.536-.068-.778-.214-.243-.147-.361-.355-.361-.632v-16.036c0-.276.118-.485.361-.626.243-.147.502-.226.778-.226h8.635c.31 0 .525.124.654.367.13.243.197.491.197.75 0 .31-.073.581-.22.812-.147.237-.355.355-.632.355h-7.203v5.556h3.734c.276 0 .485.102.632.316.147.209.22.451.22.722 0 .231-.068.451-.197.671-.13.22-.35.327-.654.327h-3.734v5.578h7.203c.276 0 .485.113.632.338.147.226.22.508.22.824 0 .259-.068.513-.197.756-.13.243-.344.361-.654.361h-8.636z"/></g></g></g></svg>