<svg id="Layer_1" enable-background="new 0 0 512 512" height="512" viewBox="0 0 512 512" width="512" xmlns="http://www.w3.org/2000/svg"><g><g clip-rule="evenodd" fill-rule="evenodd"><path d="m168.614 0h173.368l153.062 153.091v293.98c0 35.698-29.202 64.929-64.929 64.929h-261.501c-35.727 0-64.929-29.231-64.929-64.929v-382.142c0-35.698 29.202-64.929 64.929-64.929z" fill="#e5252a"/><path d="m341.982 0 153.062 153.091h-136.559c-9.1 0-16.503-7.432-16.503-16.532z" fill="#b71d21"/><path d="m31.206 218.02h352.618c7.842 0 14.25 6.408 14.25 14.25v129.36c0 7.842-6.408 14.25-14.25 14.25h-352.618c-7.842 0-14.25-6.408-14.25-14.25v-129.36c0-7.842 6.409-14.25 14.25-14.25z" fill="#b71d21"/></g><path d="m166.053 252.664c0 4.565-3.701 8.266-8.266 8.266h-44.93v22.882h38.346c4.565 0 8.266 3.701 8.266 8.266s-3.701 8.266-8.266 8.266h-38.346v40.862c0 4.565-3.701 8.266-8.266 8.266s-8.266-3.701-8.266-8.266v-88.542c0-4.565 3.701-8.266 8.266-8.266h53.196c4.566 0 8.266 3.701 8.266 8.266zm77.731 80.276h-44.929v-80.276c0-4.565-3.701-8.266-8.266-8.266s-8.266 3.701-8.266 8.266v88.542c0 4.565 3.701 8.266 8.266 8.266h53.195c4.565 0 8.266-3.701 8.266-8.266s-3.701-8.266-8.266-8.266zm69.26-88.121c-4.332-1.437-9.011.907-10.45 5.239l-21.558 64.91-21.536-64.907c-1.437-4.334-6.116-6.677-10.449-5.243-4.333 1.437-6.68 6.116-5.242 10.448l29.378 88.542c1.122 3.381 4.283 5.663 7.845 5.663h.001c3.561 0 6.722-2.281 7.845-5.66l29.407-88.542c1.438-4.332-.908-9.011-5.241-10.45z" fill="#fff"/></g></svg>