<svg id="Layer_1" enable-background="new 0 0 512 512" height="512" viewBox="0 0 512 512" width="512" xmlns="http://www.w3.org/2000/svg"><g><g clip-rule="evenodd" fill-rule="evenodd"><path d="m168.584 0h173.368l153.091 153.091v293.98c0 35.698-29.231 64.929-64.929 64.929h-261.53c-35.698 0-64.929-29.231-64.929-64.929v-382.142c0-35.698 29.232-64.929 64.929-64.929z" fill="#0ac963"/><path d="m341.953 0 153.091 153.091h-136.559c-9.1 0-16.532-7.432-16.532-16.532z" fill="#08a14f"/><path d="m31.206 218.02h352.618c7.812 0 14.25 6.408 14.25 14.25v129.36c0 7.842-6.437 14.25-14.25 14.25h-352.618c-7.842 0-14.25-6.408-14.25-14.25v-129.36c0-7.842 6.409-14.25 14.25-14.25z" fill="#08a14f"/></g><path d="m145.103 252.664v88.543c0 4.565-3.701 8.266-8.266 8.266s-8.266-3.701-8.266-8.266v-88.543c0-4.565 3.701-8.266 8.266-8.266s8.266 3.7 8.266 8.266zm88.996-8.266c-4.565 0-8.266 3.701-8.266 8.266v58.734l-37.844-62.991c-1.912-3.183-5.713-4.704-9.294-3.709-3.58.993-6.057 4.251-6.057 7.966v88.543c0 4.565 3.701 8.266 8.266 8.266s8.266-3.701 8.266-8.266v-58.734l37.844 62.991c1.521 2.532 4.237 4.01 7.086 4.01.733 0 1.476-.098 2.209-.301 3.58-.993 6.057-4.251 6.057-7.966v-88.543c-.001-4.566-3.702-8.266-8.267-8.266zm44.066 0c-4.565 0-8.266 3.701-8.266 8.266v88.543c0 4.565 3.701 8.266 8.266 8.266s8.266-3.701 8.266-8.266v-88.543c0-4.566-3.701-8.266-8.266-8.266z" fill="#fff"/></g></svg>