<svg id="Layer_1" enable-background="new 0 0 512 512" height="512" viewBox="0 0 512 512" width="512" xmlns="http://www.w3.org/2000/svg"><g><g clip-rule="evenodd" fill-rule="evenodd"><path d="m168.584 0h173.368l153.091 153.091v293.98c0 35.698-29.231 64.929-64.929 64.929h-261.53c-35.698 0-64.929-29.231-64.929-64.929v-382.142c0-35.698 29.232-64.929 64.929-64.929z" fill="#ffb11f"/><path d="m341.953 0 153.091 153.091h-136.559c-9.1 0-16.533-7.432-16.533-16.532v-136.559z" fill="#cc8e18"/><path d="m31.206 218.02h352.589c7.842 0 14.279 6.408 14.279 14.25v129.36c0 7.842-6.437 14.25-14.279 14.25h-352.589c-7.842 0-14.25-6.408-14.25-14.25v-129.36c.001-7.842 6.409-14.25 14.25-14.25z" fill="#cc8e18"/></g><path d="m159.043 252.123c.014.219.02.437.017.657v88.426c0 4.565-3.701 8.266-8.266 8.266s-8.266-3.701-8.266-8.266v-62.296l-15.917 22.763c-1.546 2.212-4.075 3.528-6.772 3.529-.001 0-.001 0-.002 0-2.698 0-5.225-1.316-6.772-3.526l-15.949-22.787v62.318c0 4.565-3.701 8.266-8.266 8.266s-8.266-3.701-8.266-8.266v-88.427c-.003-.22.003-.44.017-.658.077-1.173.397-2.279.911-3.268.518-.999 1.248-1.905 2.175-2.646.787-.63 1.693-1.119 2.676-1.429.99-.31 2.02-.425 3.028-.363 1.171.077 2.276.396 3.264.909.997.516 1.901 1.242 2.641 2.166.137.171.268.347.391.528l24.146 34.497 24.12-34.493c.124-.182.255-.359.393-.531.729-.91 1.617-1.628 2.596-2.142 1.001-.528 2.123-.857 3.313-.933 1.035-.07 2.082.056 3.089.384.963.311 1.848.795 2.62 1.415.921.737 1.646 1.637 2.162 2.63.519.991.841 2.1.917 3.277zm57.804 40.663 26.087-35.2c2.719-3.668 1.949-8.845-1.719-11.563-3.666-2.717-8.844-1.949-11.563 1.719l-38.288 51.662v-46.74c0-4.565-3.701-8.266-8.266-8.266s-8.266 3.701-8.266 8.266v88.542c0 4.565 3.701 8.266 8.266 8.266s8.266-3.701 8.266-8.266v-14.036l14.831-20.012 23.012 38.305c1.55 2.581 4.287 4.01 7.094 4.01 1.449 0 2.916-.381 4.249-1.181 3.913-2.351 5.179-7.429 2.829-11.343zm111.911-47.967c-4.334-1.438-9.012.906-10.45 5.239l-21.561 64.923-21.562-64.923c-1.439-4.332-6.113-6.679-10.45-5.239-4.333 1.438-6.678 6.118-5.239 10.45l29.407 88.542c1.122 3.379 4.283 5.66 7.845 5.66 3.561 0 6.723-2.281 7.845-5.66l29.406-88.542c1.437-4.332-.91-9.011-5.241-10.45z" fill="#fff"/></g></svg>
