<svg id="Layer_1" enable-background="new 0 0 512 512" height="512" viewBox="0 0 512 512" width="512" xmlns="http://www.w3.org/2000/svg"><g><g clip-rule="evenodd" fill-rule="evenodd"><path d="m168.579 0h173.378l153.1 153.07v293.997c0 35.729-29.233 64.933-64.932 64.933h-261.546c-35.7 0-64.933-29.203-64.933-64.933v-382.164c.001-35.699 29.234-64.903 64.933-64.903z" fill="#7b8e9d"/><path d="m341.958 0 153.1 153.07h-136.567c-9.101 0-16.534-7.433-16.534-16.504v-136.566z" fill="#62727e"/><path d="m31.193 218.003h352.609c7.842 0 14.28 6.408 14.28 14.251v129.368c0 7.842-6.438 14.28-14.28 14.28h-352.609c-7.842 0-14.251-6.438-14.251-14.28v-129.368c.001-7.842 6.409-14.251 14.251-14.251z" fill="#62727e"/></g><path d="m240.14 252.678v88.548c0 4.566-3.701 8.267-8.267 8.267s-8.266-3.701-8.266-8.267v-36.008h-36.666v36.008c0 4.566-3.701 8.267-8.266 8.267-4.566 0-8.267-3.701-8.267-8.267v-88.548c0-4.566 3.701-8.266 8.267-8.266s8.266 3.701 8.266 8.266v36.008h36.666v-36.008c0-4.566 3.701-8.266 8.266-8.266 4.566 0 8.267 3.701 8.267 8.266zm-82.607 26.6v1.141c0 19.225-15.641 34.865-34.865 34.865h-18.332v25.942c0 4.566-3.701 8.267-8.267 8.267s-8.266-3.701-8.266-8.267v-34.208-10.739-43.601c0-4.566 3.701-8.266 8.266-8.266h26.599c19.224 0 34.865 15.641 34.865 34.866zm-16.533 0c0-10.109-8.224-18.333-18.332-18.333h-18.332v35.334 2.473h18.332c10.108 0 18.332-8.224 18.332-18.332zm186.195 0v1.141c0 19.225-15.641 34.865-34.866 34.865h-18.332v25.942c0 4.566-3.701 8.267-8.267 8.267s-8.266-3.701-8.266-8.267v-34.208-10.739-43.601c0-4.566 3.701-8.266 8.266-8.266h26.599c19.226 0 34.866 15.641 34.866 34.866zm-16.533 0c0-10.109-8.224-18.333-18.333-18.333h-18.332v35.334 2.473h18.332c10.109 0 18.333-8.224 18.333-18.332z" fill="#fff"/></g></svg>