<svg id="Layer_1" enable-background="new 0 0 512 512" height="512" viewBox="0 0 512 512" width="512" xmlns="http://www.w3.org/2000/svg"><g><g clip-rule="evenodd" fill-rule="evenodd"><path d="m168.579 0h173.378l153.1 153.07v293.997c0 35.729-29.233 64.933-64.933 64.933h-261.545c-35.7 0-64.933-29.203-64.933-64.933v-382.164c.001-35.699 29.234-64.903 64.933-64.903z" fill="#e5252a"/><path d="m341.958 0 153.1 153.07h-136.567c-9.1 0-16.533-7.433-16.533-16.504z" fill="#b71d21"/><path d="m31.194 218.003h352.638c7.813 0 14.251 6.408 14.251 14.251v129.368c0 7.842-6.438 14.28-14.251 14.28h-352.638c-7.842 0-14.251-6.438-14.251-14.28v-129.368c0-7.842 6.408-14.251 14.251-14.251z" fill="#b71d21"/></g><path d="m121.818 244.412h-26.599c-4.566 0-8.267 3.701-8.267 8.266v43.601 10.739 34.208c0 4.566 3.701 8.267 8.267 8.267s8.267-3.701 8.267-8.267v-25.942h18.332c.452 0 .9-.017 1.348-.034l18.166 30.233c1.55 2.581 4.287 4.01 7.094 4.01 1.449 0 2.917-.381 4.249-1.182 3.913-2.352 5.18-7.43 2.829-11.343l-15.952-26.548c10.246-6.079 17.132-17.249 17.132-30.002v-1.141c.001-19.224-15.64-34.865-34.866-34.865zm18.334 36.008c0 8.832-6.28 16.224-14.608 17.95-.007.002-.014.004-.021.005-1.197.247-2.436.377-3.704.377h-18.332v-2.473-35.334h18.332c10.109 0 18.333 8.224 18.333 18.333zm83.598-29.584c-.86-3.758-4.204-6.424-8.059-6.424h-19.137c-3.856 0-7.201 2.666-8.059 6.426l-20.221 88.548c-1.016 4.452 1.767 8.883 6.218 9.9.62.142 1.239.21 1.848.21 3.77 0 7.177-2.597 8.052-6.428l5.903-25.851h31.674l5.912 25.853c1.018 4.451 5.45 7.227 9.902 6.216 4.451-1.018 7.233-5.451 6.216-9.902zm-29.679 49.848 9.075-39.739h5.955l9.088 39.739zm133.973-20.264v-1.141c0-19.226-15.641-34.866-34.866-34.866h-26.599c-4.566 0-8.267 3.701-8.267 8.266v43.601 10.739 34.208c0 4.566 3.701 8.267 8.267 8.267s8.266-3.701 8.266-8.267v-25.942h18.332c.452 0 .9-.017 1.348-.034l18.166 30.233c1.55 2.581 4.287 4.01 7.094 4.01 1.449 0 2.917-.381 4.249-1.182 3.913-2.352 5.18-7.43 2.829-11.343l-15.952-26.548c10.247-6.079 17.133-17.249 17.133-30.001zm-16.533 0c0 8.833-6.28 16.225-14.609 17.95-.006.002-.011.003-.017.005-1.198.247-2.438.378-3.707.378h-18.332v-2.473-35.334h18.332c10.109 0 18.333 8.224 18.333 18.333z" fill="#fff"/></g></svg>