<svg id="Layer_1" enable-background="new 0 0 512 512" height="512" viewBox="0 0 512 512" width="512" xmlns="http://www.w3.org/2000/svg"><g><g clip-rule="evenodd" fill-rule="evenodd"><path d="m168.584 0h173.368l153.091 153.091v293.98c0 35.698-29.231 64.929-64.929 64.929h-261.53c-35.698 0-64.929-29.231-64.929-64.929v-382.142c0-35.698 29.232-64.929 64.929-64.929z" fill="#ffb11f"/><path d="m341.953 0 153.091 153.091h-136.559c-9.1 0-16.532-7.432-16.532-16.532z" fill="#cc8e18"/><path d="m31.206 218.02h352.618c7.842 0 14.25 6.408 14.25 14.25v129.36c0 7.842-6.408 14.25-14.25 14.25h-352.618c-7.842 0-14.25-6.408-14.25-14.25v-129.36c0-7.842 6.409-14.25 14.25-14.25z" fill="#cc8e18"/></g><path d="m326.079 341.207c0 4.565-3.701 8.266-8.266 8.266h-53.195c-4.565 0-8.266-3.701-8.266-8.266v-88.543c0-4.565 3.701-8.266 8.266-8.266s8.266 3.701 8.266 8.266v80.277h44.929c4.565 0 8.266 3.701 8.266 8.266zm-206.711-80.277h13.138c5.316 0 9.642 4.326 9.642 9.642 0 4.565 3.701 8.266 8.266 8.266s8.266-3.701 8.266-8.266c0-14.432-11.741-26.174-26.174-26.174h-13.138c-16.771 0-30.416 13.645-30.416 30.417 0 14.817 7.614 22.044 14.002 25.497 8.108 4.383 18.344 4.89 25.338 4.89 7.64 0 13.855 6.229 13.855 13.884 0 7.64-6.216 13.856-13.855 13.856h-13.167c-5.316 0-9.641-4.312-9.641-9.613 0-4.565-3.701-8.266-8.266-8.266s-8.266 3.701-8.266 8.266c0 14.416 11.741 26.145 26.173 26.145h13.167c16.756 0 30.387-13.632 30.387-30.388 0-16.771-13.631-30.416-30.387-30.416-21.092 0-22.808-6.274-22.808-13.855 0-7.656 6.228-13.885 13.884-13.885zm120.802 18.332v35.346c0 8.619-3.15 16.512-8.351 22.604l5.407 9.363c1.996 3.457.812 7.877-2.644 9.874-1.138.657-2.382.97-3.608.97-2.497 0-4.926-1.296-6.265-3.614l-4.451-7.707c-4.534 2.162-9.603 3.375-14.952 3.375-19.224 0-34.864-15.64-34.864-34.864v-35.346c0-19.225 15.64-34.864 34.864-34.864s34.864 15.639 34.864 34.863zm-17.708 41.748c.748-1.996 1.176-4.147 1.176-6.401v-35.346c0-10.109-8.224-18.332-18.331-18.332-10.108 0-18.332 8.224-18.332 18.332v35.346c0 10.109 8.224 18.332 18.332 18.332 2.339 0 4.568-.457 6.626-1.259l-4.663-8.074c-1.996-3.457-.812-7.877 2.644-9.874 3.456-1.995 7.877-.813 9.873 2.644z" fill="#fff"/></g></svg>