<svg height="512" viewBox="0 0 439.5 512" width="512" xmlns="http://www.w3.org/2000/svg"><g id="Layer_2" data-name="Layer 2"><g id="Layer_1-2" data-name="Layer 1"><g id="SRT"><path d="m323.64 141a24.14 24.14 0 0 1 -24.14-24.14v-116.86h-165.29a61.71 61.71 0 0 0 -61.71 61.71v388.58a61.71 61.71 0 0 0 61.71 61.71h243.58a61.71 61.71 0 0 0 61.71-61.71v-309.29z" fill="#252a3f"/><path d="m323.64 141h115.86l-140-141v116.86a24.14 24.14 0 0 0 24.14 24.14z" fill="#7f7fdd"/><rect fill="#7f7fdd" height="172" rx="42.43" width="383" y="216"/><g fill="#252a3f"><path d="m108.78 329.6v-6h15.6v7.2c0 7.5 3.3 10.2 8.55 10.2s8.55-2.7 8.55-10.5c0-8.7-3.3-14.25-14.1-23.7-13.8-12.15-18.3-20.7-18.3-32.7 0-16.5 8.55-26.1 24.6-26.1s24 9.6 24 26.4v4.35h-15.6v-5.4c0-7.5-3-10.35-8.25-10.35s-8.25 2.85-8.25 10.05c0 7.65 3.45 13.2 14.25 22.65 13.79 12.15 18.17 20.55 18.17 33.6 0 17.1-8.7 26.7-24.89 26.7s-24.33-9.6-24.33-26.4z"/><path d="m167.43 249.5h24.44c17.1 0 24.45 7.95 24.45 24.15v6.45c0 10.8-3.45 17.7-10.8 20.7v.3c8.25 2.55 10.95 10.35 10.95 22.2v18.45c0 5.1.15 8.85 1.8 12.75h-16.8c-.9-2.7-1.5-4.35-1.5-12.9v-19.2c0-9.75-2.85-12.9-10.35-12.9h-5.7v45h-16.49zm22.49 45c6.15 0 9.9-2.7 9.9-11.1v-8.1c0-7.5-2.55-10.8-8.4-10.8h-7.5v30z"/><path d="m240.48 264.5h-17.25v-15h51v15h-17.23v90h-16.52z"/></g></g></g></g></svg>
