<svg id="Layer_1" enable-background="new 0 0 512 512" height="512" viewBox="0 0 512 512" width="512" xmlns="http://www.w3.org/2000/svg"><g><g clip-rule="evenodd" fill-rule="evenodd"><path d="m168.579 0h173.378l153.1 153.07v293.997c0 35.729-29.233 64.933-64.933 64.933h-261.545c-35.7 0-64.933-29.204-64.933-64.933v-382.134c.001-35.73 29.234-64.933 64.933-64.933z" fill="#f60"/><path d="m341.958 0 153.1 153.07h-136.567c-9.1 0-16.533-7.403-16.533-16.504z" fill="#cc5100"/><path d="m31.194 218.003h352.638c7.842 0 14.251 6.408 14.251 14.251v129.368c0 7.842-6.408 14.28-14.251 14.28h-352.638c-7.842 0-14.251-6.438-14.251-14.28v-129.368c0-7.843 6.408-14.251 14.251-14.251z" fill="#cc5100"/></g><path d="m105.3 274.801c0 7.596 1.714 13.885 22.78 13.885 16.772 0 30.418 13.632 30.418 30.388 0 16.772-13.645 30.418-30.418 30.418h-13.139c-14.433 0-26.175-11.741-26.175-26.175 0-4.566 3.701-8.267 8.266-8.267s8.266 3.701 8.266 8.267c0 5.317 4.325 9.642 9.642 9.642h13.139c7.656 0 13.885-6.229 13.885-13.885 0-7.639-6.229-13.855-13.885-13.855-6.988 0-17.215-.507-25.32-4.896-6.384-3.458-13.994-10.692-13.994-25.521 0-16.756 13.632-30.388 30.388-30.388h13.168c14.433 0 26.175 11.741 26.175 26.175 0 4.566-3.701 8.266-8.266 8.266-4.566 0-8.266-3.701-8.266-8.266 0-5.317-4.325-9.642-9.642-9.642h-13.168c-7.638-.001-13.854 6.215-13.854 13.854zm212.692 17.952h-26.599c-4.566 0-8.267 3.701-8.267 8.267s3.701 8.266 8.267 8.266h18.333v17.367c0 3.477-2.829 6.306-6.306 6.306h-24.053c-3.477 0-6.306-2.829-6.306-6.306v-59.431c0-3.402 2.888-6.276 6.306-6.276h24.053c3.418 0 6.306 2.874 6.306 6.276 0 4.566 3.701 8.267 8.266 8.267s8.267-3.701 8.267-8.267c0-12.577-10.245-22.809-22.839-22.809h-24.053c-12.594 0-22.839 10.232-22.839 22.809v59.431c0 12.593 10.245 22.839 22.839 22.839h24.053c12.594 0 22.839-10.245 22.839-22.839v-25.633c0-4.566-3.701-8.267-8.267-8.267zm-79.155-47.92c-4.334-1.433-9.011.908-10.45 5.243l-21.537 64.911-21.559-64.914c-1.439-4.332-6.115-6.677-10.451-5.239-4.333 1.439-6.679 6.118-5.24 10.451l29.409 88.546c1.123 3.38 4.284 5.662 7.846 5.661 3.562 0 6.723-2.282 7.845-5.664l29.379-88.546c1.438-4.333-.909-9.012-5.242-10.449z" fill="#fff"/></g></svg>