<svg id="Layer_1" enable-background="new 0 0 512 512" height="512" viewBox="0 0 512 512" width="512" xmlns="http://www.w3.org/2000/svg"><g><g clip-rule="evenodd" fill-rule="evenodd"><path d="m168.58 0h173.378l153.1 153.07v293.997c0 35.729-29.233 64.933-64.933 64.933h-261.545c-35.7 0-64.933-29.204-64.933-64.933v-382.134c0-35.73 29.233-64.933 64.933-64.933z" fill="#00733b"/><path d="m341.958 0 153.1 153.07h-136.597c-9.071 0-16.504-7.403-16.504-16.504v-136.566z" fill="#005c2f"/><path d="m31.194 218.003h352.609c7.842 0 14.251 6.408 14.251 14.251v129.368c0 7.842-6.409 14.28-14.251 14.28h-352.609c-7.843 0-14.251-6.438-14.251-14.28v-129.368c0-7.843 6.408-14.251 14.251-14.251z" fill="#005c2f"/></g><path d="m207.425 341.225c0 4.566-3.701 8.266-8.266 8.266h-53.199c-4.566 0-8.266-3.701-8.266-8.266v-88.546c0-4.566 3.701-8.266 8.266-8.266 4.566 0 8.266 3.701 8.266 8.266v80.28h44.932c4.566 0 8.267 3.701 8.267 8.266zm-89.074-95.632c-3.914-2.351-8.992-1.085-11.343 2.829l-19.513 32.479-19.513-32.479c-2.35-3.912-7.428-5.18-11.343-2.829-3.913 2.351-5.18 7.43-2.829 11.343l24.041 40.016-24.041 40.016c-2.351 3.913-1.085 8.992 2.829 11.343 1.333.8 2.801 1.181 4.249 1.181 2.807 0 5.544-1.43 7.094-4.01l19.513-32.479 19.513 32.479c1.55 2.581 4.287 4.01 7.094 4.01 1.449 0 2.916-.381 4.249-1.181 3.913-2.351 5.18-7.43 2.829-11.343l-24.041-40.016 24.041-40.016c2.35-3.913 1.084-8.992-2.829-11.343zm127.832 15.353h13.168c5.317 0 9.643 4.325 9.643 9.642 0 4.566 3.701 8.266 8.267 8.266s8.266-3.701 8.266-8.266c0-14.433-11.742-26.175-26.176-26.175h-13.168c-16.772 0-30.418 13.633-30.418 30.388 0 14.831 7.619 22.065 14.012 25.523 8.111 4.387 18.342 4.894 25.331 4.894 7.657 0 13.886 6.216 13.886 13.855 0 7.656-6.229 13.885-13.886 13.885h-13.168c-5.317 0-9.642-4.325-9.642-9.642 0-4.566-3.701-8.267-8.266-8.267-4.566 0-8.266 3.701-8.266 8.267 0 14.433 11.741 26.175 26.175 26.175h13.168c16.773 0 30.419-13.646 30.419-30.418 0-16.757-13.646-30.388-30.419-30.388-21.093 0-22.809-6.289-22.809-13.885-.002-7.638 6.227-13.854 13.883-13.854zm90.963 36.006 24.042-40.016c2.351-3.913 1.085-8.992-2.829-11.343s-8.992-1.085-11.343 2.829l-19.513 32.479-19.513-32.479c-2.35-3.912-7.427-5.18-11.343-2.829-3.913 2.351-5.18 7.43-2.829 11.343l24.042 40.016-24.042 40.016c-2.351 3.913-1.085 8.992 2.829 11.343 1.333.8 2.8 1.181 4.249 1.181 2.807 0 5.544-1.43 7.094-4.01l19.513-32.479 19.513 32.479c1.55 2.581 4.288 4.01 7.094 4.01 1.449 0 2.916-.381 4.249-1.181 3.913-2.351 5.18-7.43 2.829-11.343z" fill="#fff"/></g></svg>